<?xml version="1.0" standalone="no"?>
<!DOCTYPE svg PUBLIC "-//W3C//DTD SVG 20010904//EN"
 "http://www.w3.org/TR/2001/REC-SVG-20010904/DTD/svg10.dtd">
<svg version="1.0" xmlns="http://www.w3.org/2000/svg"
 width="30" height="31" viewBox="0 0 617.000000 537.000000"
 preserveAspectRatio="xMidYMid meet">

<g transform="translate(0.000000,537.000000) scale(0.100000,-0.100000)"
fill="rgb(28,150,245)" stroke="none">
<path d="M2980 4804 c-455 -28 -871 -186 -1220 -464 -106 -85 -276 -259 -359
-368 -328 -433 -481 -991 -416 -1522 58 -484 264 -910 605 -1250 351 -351 787
-556 1295 -611 133 -14 390 -6 525 16 942 155 1651 892 1770 1840 17 133 15
391 -5 530 -122 882 -770 1586 -1635 1779 -173 38 -407 59 -560 50z m700
-1103 l0 -199 -167 -4 c-196 -4 -222 -13 -260 -88 -21 -41 -23 -57 -23 -227
l0 -183 220 0 220 0 -5 -22 c-2 -13 -14 -93 -25 -178 -11 -85 -23 -172 -26
-192 l-6 -38 -189 0 -189 0 0 -565 0 -565 -230 0 -230 0 0 565 0 565 -185 0
-185 0 0 220 0 220 185 0 185 0 0 213 c0 154 4 230 15 276 44 183 172 330 333
382 49 15 93 18 310 18 l252 1 0 -199z"/>
</g>
</svg>
